<?xml version="1.0" encoding="utf-8"?>
<svg version="1.1" xmlns:xlink="http://www.w3.org/1999/xlink" width="88px" height="88px" xmlns="http://www.w3.org/2000/svg">
  <defs>
    <filter x="26px" y="26px" width="88px" height="88px" filterUnits="userSpaceOnUse" id="filter90">
      <feOffset dx="0" dy="0" in="SourceAlpha" result="shadowOffsetInner" />
      <feGaussianBlur stdDeviation="2" in="shadowOffsetInner" result="shadowGaussian" />
      <feComposite in2="shadowGaussian" operator="atop" in="SourceAlpha" result="shadowComposite" />
      <feColorMatrix type="matrix" values="0 0 0 0 1  0 0 0 0 1  0 0 0 0 1  0 0 0 0.996078431372549 0  " in="shadowComposite" />
    </filter>
    <g id="widget91">
      <path d="M 70 30  C 92.4 30  110 47.6  110 70  C 110 92.4  92.4 110  70 110  C 47.6 110  30 92.4  30 70  C 30 47.6  47.6 30  70 30  Z " fill-rule="nonzero" fill="#ffffff" stroke="none" fill-opacity="0" />
      <path d="M 70 30.5  C 92.12 30.5  109.5 47.88  109.5 70  C 109.5 92.12  92.12 109.5  70 109.5  C 47.88 109.5  30.5 92.12  30.5 70  C 30.5 47.88  47.88 30.5  70 30.5  Z " stroke-width="1" stroke="#ffffff" fill="none" />
    </g>
  </defs>
  <g transform="matrix(1 0 0 1 -26 -26 )">
    <use xlink:href="#widget91" filter="url(#filter90)" />
    <use xlink:href="#widget91" />
  </g>
</svg>