<?xml version="1.0" encoding="utf-8"?>
<svg version="1.1" xmlns:xlink="http://www.w3.org/1999/xlink" width="150px" height="60px" xmlns="http://www.w3.org/2000/svg">
  <defs>
    <radialGradient cx="-6.66133814775094E-14" cy="6.66133814775094E-14" r="167.705098312484" gradientTransform="matrix(1 4.23685828820868E-17 -3.38948663056694E-17 0.8 -5.64462914837184E-31 1.33226762955019E-14 )" gradientUnits="userSpaceOnUse" id="RadialGradient86">
      <stop id="Stop87" stop-color="#facd91" offset="0" />
      <stop id="Stop88" stop-color="#ec808d" offset="1" />
    </radialGradient>
  </defs>
  <g>
    <path d="M 0.5 5  A 4.5 4.5 0 0 1 5 0.5 L 145 0.5  A 4.5 4.5 0 0 1 149.5 5 L 149.5 55  A 4.5 4.5 0 0 1 145 59.5 L 5 59.5  A 4.5 4.5 0 0 1 0.5 55 L 0.5 5  Z " fill-rule="nonzero" fill="#ffffff" stroke="none" fill-opacity="0.262745098039216" />
    <path d="M 0.5 5  A 4.5 4.5 0 0 1 5 0.5 L 145 0.5  A 4.5 4.5 0 0 1 149.5 5 L 149.5 55  A 4.5 4.5 0 0 1 145 59.5 L 5 59.5  A 4.5 4.5 0 0 1 0.5 55 L 0.5 5  Z " stroke-width="1" stroke="url(#RadialGradient86)" fill="none" />
  </g>
</svg>