<?xml version="1.0" encoding="utf-8"?>
<svg version="1.1" xmlns:xlink="http://www.w3.org/1999/xlink" width="44px" height="44px" xmlns="http://www.w3.org/2000/svg">
  <defs>
    <filter x="48px" y="48px" width="44px" height="44px" filterUnits="userSpaceOnUse" id="filter13">
      <feOffset dx="0" dy="0" in="SourceAlpha" result="shadowOffsetInner" />
      <feGaussianBlur stdDeviation="2" in="shadowOffsetInner" result="shadowGaussian" />
      <feComposite in2="shadowGaussian" operator="atop" in="SourceAlpha" result="shadowComposite" />
      <feColorMatrix type="matrix" values="0 0 0 0 1  0 0 0 0 1  0 0 0 0 1  0 0 0 0.996078431372549 0  " in="shadowComposite" />
    </filter>
    <g id="widget14">
      <path d="M 70 52  C 80.08 52  88 59.92  88 70  C 88 80.08  80.08 88  70 88  C 59.92 88  52 80.08  52 70  C 52 59.92  59.92 52  70 52  Z " fill-rule="nonzero" fill="#ffffff" stroke="none" fill-opacity="0" />
      <path d="M 70 52.5  C 79.8 52.5  87.5 60.2  87.5 70  C 87.5 79.8  79.8 87.5  70 87.5  C 60.2 87.5  52.5 79.8  52.5 70  C 52.5 60.2  60.2 52.5  70 52.5  Z " stroke-width="1" stroke="#ffffff" fill="none" />
    </g>
  </defs>
  <g transform="matrix(1 0 0 1 -48 -48 )">
    <use xlink:href="#widget14" filter="url(#filter13)" />
    <use xlink:href="#widget14" />
  </g>
</svg>