<?xml version="1.0" encoding="utf-8"?>
<svg version="1.1" xmlns:xlink="http://www.w3.org/1999/xlink" width="78px" height="78px" xmlns="http://www.w3.org/2000/svg">
  <defs>
    <filter x="31px" y="31px" width="78px" height="78px" filterUnits="userSpaceOnUse" id="filter11">
      <feOffset dx="0" dy="0" in="SourceAlpha" result="shadowOffsetInner" />
      <feGaussianBlur stdDeviation="2" in="shadowOffsetInner" result="shadowGaussian" />
      <feComposite in2="shadowGaussian" operator="atop" in="SourceAlpha" result="shadowComposite" />
      <feColorMatrix type="matrix" values="0 0 0 0 1  0 0 0 0 1  0 0 0 0 1  0 0 0 0.996078431372549 0  " in="shadowComposite" />
    </filter>
    <g id="widget12">
      <path d="M 70 35  C 89.6 35  105 50.4  105 70  C 105 89.6  89.6 105  70 105  C 50.4 105  35 89.6  35 70  C 35 50.4  50.4 35  70 35  Z " fill-rule="nonzero" fill="#ffffff" stroke="none" fill-opacity="0" />
      <path d="M 70 35.5  C 89.32 35.5  104.5 50.68  104.5 70  C 104.5 89.32  89.32 104.5  70 104.5  C 50.68 104.5  35.5 89.32  35.5 70  C 35.5 50.68  50.68 35.5  70 35.5  Z " stroke-width="1" stroke="#ffffff" fill="none" />
    </g>
  </defs>
  <g transform="matrix(1 0 0 1 -31 -31 )">
    <use xlink:href="#widget12" filter="url(#filter11)" />
    <use xlink:href="#widget12" />
  </g>
</svg>